# xmcd CD database file
#
# Track frame offsets:
#	150
#	17949
#	34778
#	51031
#	67294
#	78237
#	98983
#	112232
#	126070
#
# Disc length: 1933 seconds
#
# Revision: 0
# Processed by: cddbd v1.5.2PL0 Copyright (c) Steve Scherf et al.
# Submitted via: CDex 1.70beta2
#
DISCID=7c078b09
DTITLE=No Mercy Jugband - My Gal
DYEAR=1999
DGENRE=Jazz
TTITLE0=My Gal
TTITLE1=Lost John
TTITLE2=Good Morning Blues
TTITLE3=Light From The Lighthouse
TTITLE4=Go Down Old Hannah
TTITLE5=I Can't Dance
TTITLE6=San Francisco Bay Blues
TTITLE7=Fishing Blues
TTITLE8=Over In The New Burying Ground
EXTD=YEAR: 1999
EXTT0=
EXTT1=
EXTT2=
EXTT3=
EXTT4=
EXTT5=
EXTT6=
EXTT7=
EXTT8=
PLAYORDER=
